HIERARCHY
ROOT Hips
{
  OFFSET 5.88171 103.197 -191.271
  CHANNELS 6 Xposition Yposition Zposition Zrotation Xrotation Yrotation
  JOINT RightUpLeg
  {
    OFFSET -8.9458 -8.66707 0.101652
    CHANNELS 3 Zrotation Xrotation Yrotation
    JOINT RightLeg
    {
      OFFSET 0 -44.4227 1.3727
      CHANNELS 3 Zrotation Xrotation Yrotation
      JOINT RightFoot
      {
        OFFSET 0.253549 -42.0924 -1.46059
        CHANNELS 3 Zrotation Xrotation Yrotation
        JOINT RightToes
        {
          OFFSET 0.04 -4.41509 8.4991
          CHANNELS 3 Zrotation Xrotation Yrotation
          End Site
          {
            OFFSET -0.08 -0.137448 9.77979
          }
        }
      }
    }
  }
  JOINT Spine
  {
    OFFSET 0 11.8905 0
    CHANNELS 3 Zrotation Xrotation Yrotation
    JOINT Spine1
    {
      OFFSET 0 25.6574 0.127663
      CHANNELS 3 Zrotation Xrotation Yrotation
      JOINT HEad
      {
        OFFSET 0 8.73416 0.011341
        CHANNELS 3 Zrotation Xrotation Yrotation
        End Site
        {
          OFFSET -0.29 12.7742 2.51395
        }
      }
      JOINT LeftShoulder1
      {
        OFFSET 8.99 -0.362252 -0.22
        CHANNELS 3 Zrotation Xrotation Yrotation
        JOINT LeftArm
        {
          OFFSET 10.2827 -0.00338 0.322123
          CHANNELS 3 Zrotation Xrotation Yrotation
          JOINT LeftForeArm
          {
            OFFSET 32.7669 0.099144 -1.42434
            CHANNELS 3 Zrotation Xrotation Yrotation
            JOINT LeftHand
            {
              OFFSET 27.5643 0.085362 1.02216
              CHANNELS 3 Zrotation Xrotation Yrotation
              End Site
              {
                OFFSET 16.7443 -0.6 1.50291
              }
            }
          }
        }
      }
      JOINT RightShoulder
      {
        OFFSET -8.99 -0.362252 -0.22
        CHANNELS 3 Zrotation Xrotation Yrotation
        JOINT RightArm
        {
          OFFSET -10.2827 -0.00338 0.322123
          CHANNELS 3 Zrotation Xrotation Yrotation
          JOINT RightForeArm
          {
            OFFSET -32.8971 0.099144 -1.42434
            CHANNELS 3 Zrotation Xrotation Yrotation
            JOINT RightHand
            {
              OFFSET -27.4921 0.085362 1.02216
              CHANNELS 3 Zrotation Xrotation Yrotation
              End Site
              {
                OFFSET -16.6312 -0.6 1.50291
              }
            }
          }
        }
      }
    }
  }
  JOINT LeftUpLeg
  {
    OFFSET 8.9458 -8.66707 0.101652
    CHANNELS 3 Zrotation Xrotation Yrotation
    JOINT LeftLeg
    {
      OFFSET 0 -44.4227 1.3727
      CHANNELS 3 Zrotation Xrotation Yrotation
      JOINT LeftFoot
      {
        OFFSET -0.253549 -42.0924 -1.46059
        CHANNELS 3 Zrotation Xrotation Yrotation
        JOINT LeftToes
        {
          OFFSET -0.04 -4.41509 8.4991
          CHANNELS 3 Zrotation Xrotation Yrotation
          End Site
          {
            OFFSET 0.08 -0.047448 9.77979
          }
        }
      }
    }
  }
}
MOTION
Frames:	12
Frame Time:	0.0166667
-8.74589 102.287 -54.1932 0.947949 2.65485 4.74873 -2.52408 -29.6851 3.01053 1.08333 19.3987 -22.1418 6.16347 5.07777 -0.583079 4.00342 20.7661 -2.57617 -4.40956 2.60358 -0.689553 -2.70801 0.400661 0.0603874 2.61062 -21.3245 6.74762 1.19271e-015 -7.95139e-016 7.95139e-016 -88.0361 -9.46749 -30.0212 -27.0593 11.2235 -0.462446 0.368473 9.90896 -0.00117926 1.77617 0.381957 0.310207 84.0643 -27.5887 4.26241 22.7268 13.8066 10.8493 -0.369625 9.91382 0.00119886 -2.34561 -5.64966 -4.31021 -4.7525 33.881 -2.67434 1.95093 -22.8673 0.341223 0.339055 -7.95234 -0.931311 
-9.09083 102.236 -52.6677 0.927207 2.60793 5.21814 -2.61819 -29.0312 2.11621 0.346071 15.6297 -21.0184 6.18101 5.41395 -0.595064 4.87781 22.625 -3.33029 -4.34482 2.57527 -0.706326 -2.72573 0.316545 0.0593328 2.58197 -20.5141 6.43667 -4.96962e-017 -1.59028e-015 1.59028e-015 -88.103 -9.19415 -30.3727 -27.0292 11.2626 -0.583728 0.368473 9.90896 -0.00117926 1.77857 0.380438 0.294246 84.0378 -27.6437 4.22965 22.7182 13.759 10.6108 -0.369625 9.91382 0.00119886 -1.96896 -4.56632 -4.34098 -4.67595 33.6487 -3.02974 1.86564 -22.9335 0.325573 0.243276 -7.88729 -1.1952 
-9.46842 102.137 -51.0534 0.963871 2.56289 5.70333 -2.66046 -28.4617 1.21412 -0.330048 12.8078 -19.5751 6.28163 5.1651 -0.586878 6.39093 24.1606 -4.69959 -4.41304 2.54394 -0.752285 -2.79327 -0.0296262 0.0543175 2.44359 -19.4845 5.97659 1.68967e-015 7.95139e-016 -7.95139e-016 -88.2296 -9.12126 -30.5555 -26.9313 11.2901 -0.622591 0.368473 9.90896 -0.00117926 1.88105 0.385197 0.307309 83.8799 -27.7671 4.10583 22.7227 13.7007 10.3149 -0.369625 9.91382 0.00119886 -1.57454 -3.5258 -4.33612 -4.74943 33.5887 -3.25235 1.90525 -22.9257 0.329727 0.183129 -7.92606 -1.37584 
-9.86104 102.003 -49.3604 1.05538 2.48523 6.14243 -2.66934 -27.927 0.409709 -0.799809 10.822 -18.4596 6.31359 5.04988 -0.580474 7.12331 24.0858 -5.39801 -4.53143 2.51798 -0.797861 -2.90153 -0.455547 0.0486976 2.37392 -18.2917 5.59537 -1.3418e-015 0 1.59028e-015 -88.3676 -9.21535 -30.5609 -26.8178 11.3056 -0.610341 0.368473 9.90896 -0.00117926 2.00287 0.392034 0.334197 83.6864 -27.8906 3.97011 22.7359 13.6336 9.97778 -0.369625 9.91382 0.00119886 -1.21501 -2.48085 -4.23537 -4.78372 33.6742 -3.48697 1.91349 -22.8434 0.327431 0.100444 -8.02621 -1.63547 
-10.2485 101.825 -47.5807 1.23379 2.33017 6.46194 -2.68942 -27.4003 -0.0320599 -1.01056 9.72625 -18.6521 6.16715 5.79406 -0.615095 5.125 20.152 -3.66843 -4.65904 2.49509 -0.827539 -3.06938 -0.819335 0.0454583 2.55784 -16.9478 5.55951 1.09332e-015 3.97569e-016 -7.95139e-016 -88.4632 -9.48014 -30.3531 -26.7372 11.3035 -0.559442 0.368473 9.90896 -0.00117926 2.0815 0.400253 0.388021 83.5275 -27.9423 3.89268 22.7608 13.5584 9.61105 -0.369625 9.91382 0.00119886 -0.982279 -1.35939 -3.95479 -4.59617 33.8941 -3.85994 1.7278 -22.6854 0.290579 -0.0548582 -8.39061 -2.15907 
-10.6391 101.665 -45.7473 1.41065 2.16011 6.69375 -2.65098 -26.9791 -0.305123 -1.10111 9.54059 -19.262 5.71582 7.34208 -0.645476 2.37982 15.7853 -1.12551 -4.71612 2.49755 -0.831033 -3.23501 -1.18179 0.0431543 2.78285 -15.5132 5.59501 -1.2921e-015 7.95139e-016 -7.95139e-016 -88.5274 -9.8794 -29.9528 -26.6886 11.3012 -0.539214 0.368473 9.90896 -0.00117926 2.13367 0.406594 0.432195 83.3914 -28.0018 3.82283 22.7763 13.4847 9.24974 -0.369625 9.91382 0.00119886 -0.772754 -0.265135 -3.56111 -4.25879 34.2099 -4.33535 1.46697 -22.3677 0.240331 -0.269602 -8.53791 -2.79054 
-11.0398 101.59 -43.8826 1.5035 2.02795 6.86215 -2.47702 -26.7489 -0.640471 -1.11487 10.3274 -19.7453 4.49721 10.5896 -0.623787 -0.838474 14.2978 1.81518 -4.55045 2.5644 -0.783775 -3.36648 -1.57801 0.0420982 2.9297 -13.9764 5.44686 -2.98177e-015 3.97569e-016 -0 -88.4949 -10.3317 -29.35 -26.7334 11.3202 -0.676547 0.368473 9.90896 -0.00117926 2.12422 0.40474 0.417518 83.3218 -28.1611 3.67168 22.7532 13.4245 8.9386 -0.369625 9.91382 0.00119886 -0.48102 0.763361 -3.04929 -3.76065 34.5024 -4.99843 1.20329 -21.8111 0.188973 -0.496258 -7.98503 -3.35648 
-11.4348 101.575 -42.0121 1.52172 1.91666 6.91632 -2.21769 -26.7092 -0.653873 -0.928352 11.894 -20.2025 3.39546 13.4089 -0.598294 -3.47164 13.9841 4.20703 -4.33882 2.643 -0.713094 -3.39308 -1.94323 0.0400036 2.97856 -12.5559 5.34502 1.98785e-016 -1.98785e-016 -0 -88.5297 -10.9795 -28.5998 -26.7334 11.3432 -0.81121 0.368473 9.90896 -0.00117926 2.14629 0.403178 0.39495 83.2196 -28.3109 3.62288 22.7203 13.3729 8.65957 -0.369625 9.91382 0.00119886 -0.181552 1.60048 -2.54724 -3.16653 35.0007 -5.61316 0.915203 -21.0007 0.135575 -0.80241 -6.94583 -4.08223 
-11.8073 101.637 -40.188 1.45793 1.86402 6.81528 -1.9662 -27.0242 0.120537 -0.350907 14.2787 -20.5423 3.41365 13.4041 -0.612135 -3.68877 14.6582 4.42554 -4.21419 2.68802 -0.650541 -3.24977 -2.25473 0.0346972 2.79693 -11.4737 5.45984 -1.06847e-015 -3.97569e-016 1.59028e-015 -88.773 -11.9897 -27.7576 -26.572 11.354 -0.801381 0.368473 9.90896 -0.00117926 2.35987 0.412988 0.41807 82.9018 -28.3698 3.81842 22.7204 13.3346 8.43835 -0.369625 9.91382 0.00119886 0.0565709 2.06823 -2.26722 -2.53874 35.8806 -5.87902 0.603966 -19.9034 0.082224 -1.23601 -5.44489 -5.17936 
-12.1662 101.726 -38.3521 1.27976 1.75835 6.55376 -1.48667 -27.2728 1.2204 0.308358 16.8795 -20.8399 3.75966 12.2752 -0.624974 -3.11749 15.1866 3.91225 -4.15512 2.71647 -0.558905 -2.88781 -2.42155 0.0261432 2.54031 -10.7139 5.69198 -1.49089e-016 -1.98785e-016 7.95139e-016 -89.1958 -13.2235 -26.824 -26.2478 11.3726 -0.718561 0.368473 9.90896 -0.00117926 2.52914 0.420079 0.429826 82.6699 -28.3451 4.29706 22.6827 13.2933 8.18852 -0.369625 9.91382 0.00119886 0.375081 2.28299 -1.95177 -1.88246 37.2002 -6.07524 0.273752 -18.4955 0.0321549 -1.73117 -3.5713 -6.51709 
-12.5157 101.77 -36.4273 0.903839 1.45734 6.07044 -0.490554 -27.0617 2.38259 0.755511 19.1584 -21.1379 3.90547 10.9018 -0.603668 -2.90304 13.8133 3.68273 -4.23941 2.72284 -0.390057 -2.1214 -2.30657 0.0122341 2.2786 -10.4231 6.01932 1.3418e-015 3.97569e-016 -2.38542e-015 -89.9066 -14.6198 -25.7904 -25.6718 11.4237 -0.592852 0.368473 9.90896 -0.00117926 2.40171 0.409342 0.369305 82.8287 -28.1957 5.23885 22.525 13.218 7.74726 -0.369625 9.91382 0.00119886 0.949486 2.34856 -1.33987 -1.21094 39.1497 -6.4454 -0.0430375 -16.8432 -0.0128792 -2.27596 -1.54328 -8.14082 
-12.8527 101.848 -34.5224 0.463687 1.08912 5.49338 0.646812 -26.4906 3.4187 1.07408 20.9706 -21.2811 4.06353 9.34976 -0.57412 -2.6167 12.1565 3.37724 -4.3024 2.72924 -0.208305 -1.29609 -2.02561 -0.00296866 2.17491 -10.332 6.39034 2.98177e-016 -1.98785e-016 -0 -90.6521 -16.0997 -24.73 -24.9907 11.4768 -0.406557 0.368473 9.90896 -0.00117926 2.18731 0.3949 0.301661 83.1673 -27.9716 6.35285 22.322 13.1558 7.37009 -0.369625 9.91382 0.00119886 1.58632 2.1254 -0.655629 -0.484906 41.4956 -6.8554 -0.43154 -14.6434 -0.0472077 -2.76624 0.986478 -9.75652 
